<svg width="279" height="248" viewBox="0 0 279 248" fill="none" xmlns="http://www.w3.org/2000/svg">
<path d="M139.084 202.019C138.4 202.382 136.608 204.355 136.398 204.355C135.344 204.355 135.502 203.628 135.028 203.265C127.916 198.125 117.432 205.497 116.589 213.284C116.431 214.842 116.431 216.814 116.958 218.32C117.327 219.358 118.17 220.033 118.38 221.071C116.642 221.746 114.745 222.317 113.375 223.667C110.583 226.419 110.741 231.454 114.956 232.389V233.168C107.054 234.206 101.996 242.356 111.374 246.198L112.691 246.613C114.587 247.184 116.536 247.444 118.486 247.444H121.278C123.069 247.444 124.808 247.184 126.493 246.665L130.076 245.575C135.397 243.758 138.821 237.113 135.976 232.025C132.868 226.471 123.174 228.859 117.959 228.236C115.272 227.924 113.428 225.121 115.746 223.2C116.22 222.785 118.222 221.85 118.802 221.85C119.75 221.85 121.067 222.888 122.226 223.044C130.497 224.186 138.031 217.074 137.609 208.923C137.557 207.729 136.872 206.38 136.819 205.549C136.766 204.355 139.348 202.901 140.507 203.109C140.665 203.836 139.927 204.251 139.769 204.822C138.821 208.768 144.142 209.027 145.038 206.38C146.355 202.434 142.456 200.306 139.084 202.071V202.019ZM116.484 233.427C119.065 233.012 127.284 233.116 130.128 233.375C136.029 233.894 136.45 239.761 132.341 243.083C128.179 246.458 118.644 247.6 113.692 245.679C107.106 243.187 110.267 234.465 116.536 233.427H116.484ZM127.758 220.812C125.018 223.356 120.435 222.94 120.488 218.476C120.488 214.946 123.385 206.691 126.019 204.147C128.811 201.448 133.395 201.292 133.395 205.964C133.395 209.702 130.55 218.216 127.758 220.812Z" fill="black"/>
<path d="M204.431 60.5212C188.263 52.466 177.623 42.0047 180.773 22.1282C183.149 7.1685 195.288 1.78093 208.976 0.996327C237.799 -0.57287 254.432 23.0174 262.851 47.863C263.884 50.8445 264.711 55.6044 265.847 58.1674C266.002 58.5335 266.105 58.8997 266.622 58.7951V2.30399L265.692 2.56552L252.262 23.2266L251.487 22.9651C243.843 11.4576 232.84 2.82706 219.049 0.682489C218.842 0.682489 218.222 0.630181 217.964 0.473262C217.396 0.368648 207.168 0.577873 205.722 0.577873C204.276 0.577873 205.516 0.577873 205.361 0.577873C204.999 0.63018 204.637 0.682489 204.482 0.682489C181.135 3.24551 164.606 18.6236 163.108 42.9462C160.319 88.2437 208.15 94.6251 238.677 110.212C253.192 117.588 259.339 124.44 258.615 141.858C257.944 157.916 251.177 171.463 234.855 175.334C218.377 179.205 202.468 174.759 190.071 163.408C174.988 149.652 165.794 130.141 161.817 110.16L161.3 110.422V173.294L162.23 173.033L179.534 153.679C180.05 153.575 185.009 159.694 185.887 160.636C200.402 175.648 217.499 180.408 237.902 175.7C264.504 169.58 279.742 146.252 278.192 119C276.074 81.3915 231.136 73.8071 204.379 60.4166L204.431 60.5212Z" fill="black"/>
<path d="M141.282 58.8827L140.498 58.7263C137.779 48.6103 133.702 38.2335 127.691 29.5776C121.47 20.713 111.068 12.4742 100.927 8.61552C90.7855 4.75684 72.1761 5.539 57.7486 5.27828C57.5918 5.43471 56.9645 6.0083 56.9645 6.06045V87.9272L57.3304 88.3443H68.5692C71.0784 88.3443 77.9785 85.7371 80.4876 84.5899C93.6605 78.2804 98.6788 65.7136 99.5674 51.7911L100.299 51.3739V126.566L99.7765 126.827C99.3061 126.514 99.1493 121.612 98.9402 120.57C96.6924 106.438 90.6809 96.2702 76.7762 91.3687C62.8714 86.4671 70.8693 89.3872 69.6147 89.3872H57.3304L56.9645 89.8043V171.41C56.9645 172.923 59.4736 172.297 60.2055 172.297C73.4307 172.297 91.4128 173.913 103.697 169.846C128.579 161.503 141.857 134.649 145.516 110.297H146.3V172.766C146.3 172.87 145.673 173.444 145.359 173.444L0.300003 173.027L0.822738 172.505L26.1231 172.349L26.3845 171.462L26.28 5.79972C26.2277 5.69543 25.8095 5.27828 25.7572 5.27828H0.665918L0.300003 4.86113L0.665918 4.44397H140.916L141.282 4.86113V58.987V58.8827Z" fill="black"/>
<path d="M33.5997 230.342C32.3283 228.911 35.4539 229.422 36.4075 229.217C37.3611 229.013 38.0498 228.246 38.4207 227.582L51.453 194.722C51.1351 193.699 48.4333 194.108 47.5327 194.057L47.7976 193.444L58.393 193.546L57.4924 221.143L58.234 220.836L78.3653 193.802L84.1927 193.597C85.7291 193.495 87.9541 193.393 89.4904 193.597C91.0268 193.802 89.9143 193.495 89.8613 194.108H85.7821C85.5701 194.108 84.8815 194.671 84.7755 194.926L71.3194 229.371H75.5575C75.6635 229.677 75.4515 230.393 75.1867 230.393H60.3531L59.9823 229.984L60.3531 229.371H64.3264L77.1468 197.175L51.6119 230.393C50.6583 230.188 51.453 226.458 51.506 225.691C51.7179 217.668 51.7708 209.644 52.0357 201.672C52.3006 193.699 52.5125 198.861 52.3006 197.328C52.0887 195.795 52.1417 196.561 51.7708 196.97L39.904 227.582C39.5861 230.393 42.4469 228.962 43.5594 229.524C44.0892 229.78 43.1886 230.444 43.1356 230.444H33.5997V230.342Z" fill="black"/>
<path d="M229.684 209.506C232.361 206.404 234.88 201.855 239.499 201.493C244.117 201.131 245.745 202.785 245.85 206.352C245.954 209.919 240.076 220.052 238.449 225.015C236.822 229.977 236.927 229.512 238.764 229.874C241.651 230.391 243.698 227.393 245.01 225.273C246.322 223.153 246.217 222.481 246.374 222.43C246.637 222.326 247.477 222.326 247.267 222.843C246.952 223.619 245.64 225.893 245.115 226.669C243.278 229.512 240.129 232.355 236.455 231.166C232.781 229.977 234.04 229.771 233.62 228.53C232.151 224.136 237.189 216.071 238.921 211.832C240.653 207.593 242.438 204.491 240.548 203.095C236.14 201.7 232.466 207.024 230.471 210.281C226.745 216.381 224.645 223.774 221.654 230.236C220.919 231.063 217.717 230.494 216.51 230.649L216.3 229.926C218.977 222.998 222.598 215.968 224.96 208.989C227.322 202.01 226.745 204.75 225.328 203.095C222.703 201.234 217.77 207.231 217.297 209.557C215.618 210.074 217.56 207.179 217.875 206.662C222.493 199.373 232.308 199.27 229.631 209.609L229.684 209.506Z" fill="black"/>
<path d="M111.935 202.366C112.194 202.418 112.402 202.883 112.246 203.141C109.857 210.065 106.17 216.937 103.937 223.808C101.704 230.68 102.483 227.89 103.418 229.75C107.884 230.939 109.65 225.204 111.415 222.258C111.987 222.672 111.779 222.723 111.623 223.188C110.636 226.134 107.884 230.887 104.456 231.249C101.029 231.61 99.2632 229.647 98.5881 225.979C97.913 222.31 98.7439 225.514 98.0688 225.565C96.1992 230.577 89.396 233.522 84.9818 229.699C79.3731 224.894 83.7354 214.508 87.4226 209.703C91.1098 204.898 97.2898 199.886 102.535 201.901C107.78 203.916 104.924 204.536 105.703 206.19C106.17 206.19 106.897 202.315 107.78 202.315H111.935V202.366ZM100.042 202.418C95.2125 203.141 91.3175 211.305 89.7076 215.387C88.0977 219.468 84.6183 230.99 92.1485 229.957C99.6787 228.924 97.6014 225.307 98.8478 222.672C100.094 220.037 103.002 213.423 104.093 209.807C105.184 206.19 105.08 206.035 103.781 203.968C102.483 201.901 101.496 202.16 100.042 202.418Z" fill="black"/>
<path d="M170.933 202.231C171.298 202.335 171.402 202.957 171.194 203.269C168.848 210.165 165.043 217.114 162.854 224.011C160.665 230.908 160.717 230.338 164.105 229.923C167.493 229.508 169.265 225.048 169.995 222.611L170.777 222.455C169.734 225.878 167.18 230.908 163.115 231.271C160.092 231.53 158.632 230.545 157.903 227.641C157.173 224.737 158.111 225.515 157.017 225.567C155.088 231.582 146.019 233.968 142.527 227.952C137.419 219.24 149.303 201.868 158.997 201.454C161.238 201.35 163.323 202.076 164.209 204.306C165.095 206.535 164.157 205.654 164.731 206.121C165.669 205.55 165.877 202.231 167.076 202.231C168.275 202.231 170.36 202.076 170.985 202.231H170.933ZM147.739 229.093C149.667 231.115 152.951 229.612 154.671 228.004C157.069 225.671 162.125 213.432 163.219 209.802C164.314 206.172 164.157 203.372 161.186 202.335C155.661 200.416 150.293 211.358 148.781 215.351C147.583 218.514 145.133 226.345 147.791 229.093H147.739Z" fill="black"/>
<path d="M25.282 207.975C25.2293 208.026 23.6473 208.543 23.3309 208.543C23.0145 208.543 17.8994 205.856 17.8994 207.355L18.6904 208.491C17.8994 208.698 17.6357 207.768 17.0556 207.768C16.1064 207.768 15.21 208.543 14.208 208.491C14.1553 209.008 14.208 208.904 14.5244 209.059C15.3154 209.421 17.4248 209.008 18.4267 209.008L16.8447 211.074C18.4267 210.764 19.7978 210.351 21.4325 210.558L21.5907 211.333L23.4891 211.074C24.8074 208.439 27.2331 209.834 29.0788 211.074L29.8698 210.558C30.8717 211.901 31.2936 211.074 32.2955 210.868C33.2974 210.661 34.6158 211.074 34.4576 209.163C34.2994 207.251 33.8248 208.181 33.983 207.665C34.1412 207.148 35.7759 205.96 35.5122 204.823C34.8267 203.428 33.3502 203.635 32.401 202.705C32.8756 202.033 32.8228 202.55 33.2447 202.705C34.1412 202.963 35.6704 203.583 35.8286 204.565C35.9868 205.546 35.2486 206.58 35.3013 207.665C35.354 208.749 35.9868 209.421 36.0923 210.299C36.1978 211.178 35.6704 212.469 35.8286 213.657C35.9868 214.846 36.6196 214.846 36.2505 215.311C35.2486 214.484 34.6685 213.761 34.4048 212.469L34.0884 212.262C32.6646 212.159 31.0299 212.521 29.6588 212.262C28.2878 212.004 26.0203 210.558 25.8093 210.713C27.0222 213.244 25.9148 216.189 22.6453 215.104C22.6453 215.827 21.7489 216.654 21.0633 216.912L21.1688 217.429L22.0653 217.17V217.79C21.327 218.204 20.536 218.72 20.9579 219.65C21.3797 220.58 22.7508 222.078 22.8563 222.182C23.2254 222.492 23.8582 222.492 23.9109 222.75C24.0691 223.163 24.1746 224.506 24.1746 225.023C24.2273 226.005 23.8055 228.949 23.9109 229.363C24.0164 229.776 25.8093 232.359 26.7585 231.894C27.0749 232.669 25.5984 233.444 25.0183 233.444C24.4383 233.444 23.4891 231.481 22.2762 231.894C22.2762 230.758 22.6453 229.828 22.5399 228.639C22.4344 227.451 21.8016 226.573 21.7489 225.798C21.6961 225.023 22.0653 224.713 22.0125 224.041C21.8543 222.802 20.2196 221.51 19.9032 220.27C19.0068 220.115 18.954 221.51 18.2158 221.562C17.1084 221.562 16.792 219.96 16.1592 220.063C15.4209 221.045 13.2061 221.613 12.5733 222.233C11.9405 222.853 11.7823 225.591 9.98939 224.661C9.19839 223.473 11.8351 220.528 12.6788 219.599C13.5225 218.669 14.5244 218.1 15.4736 216.292C16.4228 214.484 15.8428 215.827 15.7373 215.362C14.8936 215.517 14.3662 216.395 13.417 215.827C13.5752 214.897 12.7842 214.277 12.837 213.451C12.8897 212.624 13.9971 212.159 13.7862 211.488C13.5752 210.816 12.8897 210.609 12.7315 210.196C12.4151 209.524 12.3096 208.233 11.8878 207.406C11.1495 205.805 9.40933 204.513 8.61833 203.118C7.82733 201.723 7.88007 201 7.3 200.019C7.72187 199.45 7.7746 200.122 7.88007 200.174C9.30386 201.258 10.3585 202.085 12.046 202.86C11.4132 203.48 9.09293 201.723 8.882 201.93C8.61833 203.532 10.5167 203.635 11.5187 204.358L10.7277 204.875L10.9913 205.753L12.046 205.65L14.6826 203.945L14.7881 205.495L16.3701 204.462C17.1611 204.462 17.7939 205.443 18.374 205.65C18.954 205.856 19.3759 205.546 19.6923 205.65C20.1669 205.805 20.536 206.838 21.5379 205.856C21.6961 204.823 20.4306 204.72 20.7469 203.428C21.5907 203.738 22.3289 202.86 22.9617 202.912C23.5945 202.963 25.3875 204.203 25.7566 203.945C27.8659 199.295 31.4518 198.107 36.4087 198.52C41.0492 198.934 35.8286 200.019 34.7212 200.484C31.6627 201.775 27.1804 203.945 25.3347 206.786C23.4891 209.628 25.2293 207.975 25.1765 208.026L25.282 207.975ZM14.1553 205.96L13.7334 206.58L15.1572 207.51L15.4209 206.218L14.1026 206.011L14.1553 205.96ZM16.8974 214.691C18.7958 215.104 19.9032 214.019 20.8524 212.521L20.1669 211.901C19.4286 211.746 18.0048 213.812 16.9502 213.709V214.691H16.8974Z" fill="black"/>
<path d="M194.547 209.9C188.673 214.777 182.645 218.987 176.567 223.505C170.488 228.024 175.954 223.505 176.107 224.173C179.274 223.197 182.288 223.608 185.353 224.789C188.418 225.97 193.219 229.667 195.773 225.867C198.327 222.068 196.029 220.938 193.219 220.065L193.372 219.552C199.247 220.322 198.787 228.742 194.088 230.796C187.089 233.825 181.266 225.2 175.29 225.302C169.313 225.405 173.86 227.305 174.064 228.434C174.881 232.799 169.211 232.08 170.488 228.434C171.765 224.789 181.624 219.09 184.535 216.882C187.447 214.674 191.38 211.234 195.007 208.667C195.109 208.154 194.905 208.257 194.496 208.411C189.746 210.362 186.323 206.614 182.237 205.638C176.669 204.303 176.26 210.978 180.755 212.415C180.755 212.877 180.858 212.98 180.347 212.929C179.478 212.877 178.201 211.697 177.742 210.926C175.29 207.281 178.201 202.249 182.441 201.839C187.958 201.325 192.504 207.23 196.693 206.973C200.881 206.716 197.459 203.995 197.357 202.712C197.101 199.272 202.771 199.836 200.932 203.79C199.757 206.306 196.693 208.205 194.649 209.9H194.547Z" fill="black"/>
<path d="M272.108 203.262C273.692 204.924 273.534 206.949 272.584 208.871C270.63 212.766 263.978 215.155 259.861 216.09C255.743 217.025 255.848 216.453 255.057 216.817C254.265 217.18 253.103 222.27 252.998 223.36C251.995 233.903 262.289 231.151 266.935 225.853C267.621 225.074 269.733 221.491 269.997 221.387C270.261 221.283 270.789 221.283 270.63 221.751C270.313 222.841 267.779 226.217 266.829 227.1C261.761 231.878 252.47 234.163 249.197 226.217C245.132 216.194 255.584 201.341 266.565 201.445C277.546 201.548 270.789 201.86 272.108 203.262ZM255.32 215.882C259.913 215.363 264.929 213.96 267.568 209.91C270.208 205.859 269.786 200.042 263.662 202.951C261.233 204.093 259.385 206.69 258.118 208.923C256.851 211.156 254.845 215.363 255.32 215.882Z" fill="black"/>
<path d="M212.105 202.94C212.623 203.51 213.192 205.065 213.244 205.842C213.399 209.158 206.776 220.196 205.172 224.186C203.568 228.176 202.688 229.471 205.172 229.989C207.655 230.508 210.191 227.036 211.329 225.118C212.468 223.201 212.054 222.424 213.244 222.268C213.761 222.787 210.553 227.865 209.88 228.59C205.637 233.409 198.083 232.166 199.894 224.548C201.239 218.848 205.741 213.148 207.862 207.656C209.984 202.163 209.052 204.754 208.38 203.199C206.31 201.904 203.671 203.976 202.429 205.635C201.187 207.293 200.308 209.314 200.101 209.469C199.79 209.676 199.169 209.78 199.324 209.21C199.738 207.811 202.636 204.08 203.826 203.096C206.051 201.334 210.087 200.556 212.157 202.94H212.105Z" fill="black"/>
<path d="M17.1697 204.341L14.9836 203.981L12.5061 200.074C10.4658 199.662 9.10559 197.811 7.84254 196.166C7.50249 196.475 7.45391 196.475 7.59965 196.937C7.98828 198.326 10.3686 199.765 11.3402 200.691C12.3118 201.616 11.9232 201.102 11.826 201.565C11.0487 202.285 7.45391 198.274 6.53092 197.914C6.38518 196.577 6.09371 195.652 6.53092 194.315C6.96813 192.978 7.06528 193.75 7.16244 193.441C7.30818 192.978 7.16244 190.305 8.37691 192.002C9.83427 194.058 8.95985 193.852 9.10559 195.806C9.25133 197.76 11.0487 199.148 11.5345 199.405C12.0203 199.662 12.2632 199.405 12.6033 199.405C12.9433 199.405 12.9919 199.817 13.2834 199.765C13.5748 199.714 13.7206 199.354 14.012 199.354C14.935 199.354 17.0239 202.336 17.2182 203.159C17.4126 203.981 17.2182 203.981 17.0725 204.444L17.1697 204.341Z" fill="black"/>
<path d="M215.1 189.105C217.902 188.601 220.209 191.322 218.945 193.639C217.023 197.216 210.815 195.05 212.628 190.868C214.441 186.687 214.331 189.206 215.1 189.105Z" fill="black"/>
</svg>
