<svg width="601" height="181" viewBox="0 0 601 181" fill="none" xmlns="http://www.w3.org/2000/svg">
<path d="M571.2 123.7C570.3 122.8 568.9 122.4 567.7 122.7C566.4 123 565.4 124 565.1 125.3C564.8 126.6 565.1 127.9 566.1 128.8C566.8 129.5 567.7 129.9 568.7 129.9C569.7 129.9 570.6 129.5 571.3 128.8C572.6 127.5 572.6 125.2 571.2 123.7ZM571 128.4C570.4 129.1 569.6 129.5 568.7 129.5C567.8 129.5 567 129.2 566.3 128.6C565.7 128 565.4 127.2 565.4 126.4C565.4 125.7 565.7 124.9 566.1 124.4C566.7 123.7 567.6 123.3 568.5 123.3C569.4 123.3 570.3 123.7 570.9 124.4C572 125.5 572 127.2 571 128.4ZM111.8 128.1C111.9 125.6 110.9 123.2 109.1 121.5C107.3 119.8 104.9 118.9 102.4 119.1C97.4 119.1 94.5 122.2 94.5 125C94.4 126.3 94.8 127.7 95.8 128.7C96.7 129.7 98 130.2 99.4 130.2C100.4 130.3 101.5 129.9 102.2 129.2C102.9 128.5 103.3 127.4 103.2 126.4C103.2 123.8 100.5 123.6 99.8 122.8C99.8 121.9 100.2 120.9 102.6 120.9C106 120.9 108.8 122.2 108.8 127.6C108.5 131.5 105.2 134.4 101.3 134.3C99.4 134.3 94.2 133.9 91.9 133.9C85.9 133.9 77.1 136.4 77.1 145.6C77.1 148.5 78.3 151.3 80.4 153.3C82.5 155.3 85.3 156.4 88.2 156.4C90.2 156.5 92.1 155.7 93.5 154.4C94.9 153 95.8 151.2 95.8 149.2C95.8 144.9 92.6 144 90.1 144C89 144 87.9 144.4 87.1 145.2C86.3 146 85.9 147.1 86 148.2C86 151.3 88.7 152 91.1 153C89.9 153.9 88.5 154.4 87 154.3C83.2 154.3 80.2 152.1 80.2 146.6C80.2 141.6 84.7 138.8 89.6 138.8C96.1 138.8 102.4 142.6 102.4 152.8C102.4 163.2 93.6 173.7 77.5 173.7C59.9 173.7 49.7 165 49.7 156.3C49.6 152.9 51.6 149.9 54.7 148.6C57.5 150.6 60.8 151.8 64.2 152C65.2 152.2 66.2 151.9 66.9 151.2C67.6 150.6 68.1 149.6 68.1 148.6C68.1 146.4 66 144.8 62.5 144.8C60.1 145 57.7 145.5 55.4 146.5C53.8 144.9 53 142.7 53.3 140.5C53.3 133.7 57.5 129.4 63.2 129.4C68 129.4 70.5 131.7 73.5 136.3L74.9 135.6C73.2 129.2 68 124.7 59.9 124.7C52.5 124.7 46.8 131.1 46.8 136.6C46.6 141.1 49 145.4 52.9 147.7C48.2 150.3 43.5 153.2 43.5 160.7C43.5 172 55.4 180.8 70 180.8C95.9 180.8 105.4 164 105.4 153.5C105.4 144.7 101.9 141.5 97.2 139.4C106.4 139.1 111.7 135 111.8 128.1ZM15.2 96.9C15.2 112.7 1.8 107.4 1.8 112.1C1.8 113.8 2.3 114.5 3.7 114.5C8.6 113.9 13.6 113.7 18.5 113.9C27.6 113.9 40.3 114.5 42.5 114.5C44.1 114.5 45.3 114 45.3 113.2C45.3 108.2 28.9 111.8 28.9 100.9V61.2C28.9 59.5 28.9 58.5 31 58.5H94.7C96.8 58.5 96.1 59.9 96.1 62.5V100.8C96.1 110.9 84 108.6 84 112.5C84 115 86.6 114.6 88.1 114.6C91.5 114.6 96.2 114 107.2 114C113.4 114 118.7 114.6 123.4 114.6C124.6 114.6 125.3 113.2 125.3 112.7C125.3 108.7 109.6 111.6 109.6 99.9V15.2C109.6 4.2 121.1 6.8 121.1 4C121.1 3 120.7 1.5 116.3 1.5C112.8 1.5 110.3 2.10001 103.9 2.10001C100.5 2.10001 91.7 1.5 86 1.5C83.4 1.5 83.1 2.3 83.1 3.2C83.1 6.9 96 4.2 96 15.2V48C96 48.6 96.3 52.6 94.6 52.6H31.4C28.8 52.6 28.8 52 28.8 49.7V15.2C28.8 3.2 41.2 6.30001 41.2 3.10001C41.2 2.50001 40.8 1.39999 37.8 1.39999C32.5 1.39999 27.1 2 21.8 2C15.4 2 9.2 1.39999 2.8 1.39999C1.4 1.39999 0 1.70001 0 3.10001C0 6.60001 14.8 3.40001 15.1 15.1L15.2 96.9ZM191.3 0C156 0 128.1 24.1 128.1 57.3C128.1 91 151.1 115.6 188.4 115.6C226.8 115.6 253.5 92.5 253.5 56.6C253.6 23.5 226.5 0 191.3 0ZM195.6 110.8C161.5 110.8 140.6 82.2 140.6 52.7C140.6 27.5 157.2 5.3 186.1 5.3C219.7 5.3 240.9 33.5 240.9 62.6C241 92.2 220.8 110.8 195.6 110.8ZM384.6 20.6C384 1.70001 397.7 8.39999 397.7 3.39999C397.7 2.39999 397 1.6 396 1.5C393.2 1.5 391.7 2.10001 387.7 2.10001C386.8 2.10001 381.3 1.5 379.6 1.5C377.5 1.3 376.1 5.19999 375.1 6.89999L334 83.2C331.2 88.5 329.5 91.8 328.7 91.8C327.5 91.8 326.8 90.4 324.9 87L283.9 5.89999C283 4.19999 282.7 1.39999 280.3 1.39999C277.2 1.39999 274.1 2 271 2C267.9 2 264.6 1.39999 261.5 1.39999C259.9 1.39999 258.6 1.70001 258.6 3.10001C258.6 8.50001 275 -0.399994 275 37.1C275 54 272.9 70.9 270.9 97C269.7 113.6 258.7 107.1 258.7 112.5C258.7 113.6 259.2 114.4 260.4 114.4C263.5 114.4 266.4 113.8 275.5 113.8C280.7 113.8 288.4 114.4 290.7 114.4C292.9 114.4 295 114.2 295 112.7C295 107 278.6 114 279.5 92.8L281.6 36.8C281.8 35.1 282.3 34.4 282.8 34.4C283.8 34.5 284.6 35.1 284.9 36.1L321.6 107.3C322.1 108.4 323.3 111.9 325.1 111.9C326.9 111.9 329.6 105.4 330.4 103.9L366.1 36.6C367.8 33.2 369.5 31.8 370.6 31.8C371.7 31.8 372.6 34.1 372.6 38L374.3 100C374.5 111.8 363.6 108.4 363.6 113.1C363.6 113.7 363.9 114.5 365.5 114.5C369.8 114.5 375.3 113.9 380.7 113.9C387.6 113.9 393.6 114.5 396.9 114.5C398.8 114.5 401 114.5 401 112.8C401 107.2 388.3 113.1 387.4 99.7L384.6 20.6ZM442.1 18.2C442.1 7.5 441.7 8.10001 459.8 8.10001C467.3 8.10001 486.9 7.10001 491.8 12.6C494.8 16.3 491.8 23.9 496.3 23.9C497.4 23.9 500.1 22.6 500.1 4.89999C500.1 2.99999 499.7 1.39999 498.2 1.39999C492.4 1.39999 475 2 471.3 2C463.4 2 453.6 1.39999 418 1.39999C412.5 1.39999 411.4 2 411.4 3.3C411.4 5.2 415.5 5.5 417 5.8C427.2 7.1 427.2 14.7 427.2 21.9V94.7C427.2 102.2 426.8 106.7 421.9 108.6C415.9 111.2 414 110.8 413.6 112.8C413.6 114.1 414.7 114.5 416.4 114.5C423.9 114.5 431.8 114 439.4 113.9C453.7 113.6 468 114.5 482.3 114.5C490.6 114.5 492 114.8 498 109.1C502.5 104.9 507.4 99.4 507.4 93.6C507.4 93.3 507.2 91.7 505.9 91.7C503.5 91.7 505 108.2 456.3 108.1C440.5 108.1 442 104.3 442 94.8V65.4C442 63 441.4 60.4 445.4 60.4H473.3C489.1 60.4 482.7 74.4 488.6 74.4C489.2 74.5 489.7 74.3 490.2 73.9C490.6 73.5 490.8 72.9 490.7 72.3C490.7 68 490.3 63.9 490.3 59.7C490.3 54.7 490.7 49.2 490.7 43.6C490.7 42.3 490.1 40.6 488.6 40.6C484.1 40.6 489.2 53.4 469.6 53.4H449.3C441.8 53.4 442.1 53.4 442.1 48V18.2ZM521.7 106.8C522.4 109.7 538 115.6 550.8 115.6C589.9 115.6 600.1 95.5 600.1 82.1C600.1 38.1 530.1 55.6 530.1 25.6C530.1 10.9 544.6 4.8 558.2 4.8C573.4 4.8 585.9 11.8 591.1 25.6C591.6 27 592.8 30.4 594.7 30.4C596.6 30.4 596.8 29.3 596.6 28L594 6.2C593.8 4.5 593 4 591.9 4C590.2 4 589.8 5.7 588.3 5.7C585.9 5.8 580.2 0 559.4 0C539.6 0 521.2 9.7 521.2 30C521.2 71.6 591.2 54.4 591.2 85.3C591.2 102.1 575.2 110.5 558.8 110.5C535 110.5 524.7 93.9 522.6 86.6C521.7 83.2 521.7 81.3 519.2 81.3C517.5 81.3 516.6 83 517.3 86.3L521.7 106.8ZM168.3 148.9C167.5 148.9 166.2 148.7 166.2 149.8C166.2 151.9 174.3 150.1 174.3 154.1V167.2C174.3 174.4 163.4 178.2 155 178.2C137.1 178.2 127.6 163.9 127.6 149C127.6 135.1 136 122.2 152.7 122.2C174.6 122.2 178.8 138.5 181.2 138.5C182.1 138.5 182.2 137.7 182.2 137L181.3 125.9C181.2 125.2 181.6 124 180.3 124C179.3 124 178.9 125.5 177.9 125.5C175.3 125.5 170.6 119.8 154.6 119.8C134.9 119.8 119.8 132.4 119.8 150.7C119.8 169.4 132.5 181 153.1 181C169.6 181 172.1 175.3 181.7 172.5V155.3C181.7 149.6 186.4 151.6 186.4 149.8C186.4 148.7 184.6 149 183.9 149L168.3 148.9ZM249.2 175.6C247.4 172.6 245.8 169.4 244.6 166.1L225.6 123.4C225.3 122.7 224.7 120.3 223.7 120.3C222.7 120.3 222.2 121.6 216.8 132L195 174.3C192.6 179 188.3 177.6 188.3 179.3C188.3 179.5 188.4 179.8 188.5 179.9C188.7 180.1 188.9 180.2 189.1 180.2C191.5 180.2 193.9 179.9 196.4 179.9C198.9 179.9 201.5 180.2 204.1 180.2C205.3 180.2 206.6 180.4 206.6 179C206.6 176.8 200.1 179.3 200.1 173.5C200.1 172.5 200.3 171.5 200.7 170.6L206.5 159C207.4 157.3 209.1 157.3 210.8 157.3H230.9C233.4 157.3 234 158.5 234.9 160.4L237.8 167.2C238.7 169.4 240.6 173.3 240.6 175.1C240.6 178.2 235.1 177.4 235.1 179.4C235.1 180.2 236.6 180.2 237.1 180.2C239.6 180.2 242 179.9 244.5 179.9C248.2 179.9 252 180.2 255.7 180.2C256.3 180.2 257 180.2 257 179.4C257.2 177.6 251.9 179.4 249.2 175.6ZM229.6 153.8H211.5C210.3 153.8 209.7 153.5 210.3 152.3L220.6 132.2C221.2 131.2 221.6 131.2 222.1 132.2L231 152.2C231.5 153.1 231.6 153.7 229.6 153.8ZM310.7 171.3L295.5 150.3C301.9 148 307 142.4 307 135.9C307 119.9 286.9 121.5 285.4 121.5C280.7 121.5 275.5 121.8 270.2 121.8C268.2 121.8 266.3 121.7 264.4 121.5C263.3 121.5 262.6 122 262.6 122.5C262.6 125.3 270.5 121.9 270.5 129.9V172.1C270.5 178.4 263.8 177.2 263.8 179.3C263.8 179.5 263.9 179.8 264.1 179.9C264.3 180.1 264.5 180.2 264.7 180.2C268.2 180.2 271.6 179.9 275.1 179.9C282.7 179.9 284.8 180.2 285.6 180.2C286.4 180.2 287.2 180.4 287.2 179.5C287.2 176.7 277.7 179.2 277.7 172.1V154.6C277.7 153.8 277.1 152.3 280.1 152.3C290.3 152.3 289 152 292.2 156.7L302.2 171.2C305.7 175.9 309.2 180.2 315.9 180.2C316.7 180.2 321.8 180.2 321.8 179.2C321.7 177.4 317.3 180.5 310.7 171.3ZM287.4 149.7C283.1 149.7 277.5 150.1 277.5 148.5V127.3C277.5 124.1 279.4 124.2 282.7 124.2C291.6 124.2 300.1 127.6 300.1 137.7C300.1 148 291.3 149.7 287.4 149.7ZM356.2 121.6C348.3 121.6 342.4 121.9 336.4 121.9C333.7 121.9 331 121.6 328.2 121.6C327.6 121.6 326.9 121.9 326.9 122.4C326.9 124.6 334.4 122 334.4 130.5V171.8C334.4 179.7 327.9 177.6 327.9 179.5C327.9 180 328.1 180.3 328.8 180.3C329.5 180.3 338.2 180 339 180C343.7 180 348.3 180.3 353 180.3C378.3 180.3 388.2 167.1 388.2 148C388.3 132.7 372.4 121.6 356.2 121.6ZM356.2 178.1C352.1 178.1 345.2 177.1 342.1 174.4C341.3 173.7 341.5 169.7 341.5 168.3V128.9C341.5 125 341.9 123.7 350.5 123.7C367.8 123.7 381.4 134.2 381.4 152.7C381.5 171.8 369.2 178.1 356.2 178.1ZM409.6 130.3C409.6 124.7 409.4 125.1 418.2 125.1C421.9 125.1 431.4 124.6 433.7 127.4C435.2 129.3 433.7 133.3 435.9 133.3C436.5 133.3 437.7 132.6 437.7 123.4C437.7 122.4 437.5 121.6 436.8 121.6C434 121.6 425.6 121.9 423.7 121.9C419.9 121.9 415.1 121.6 397.9 121.6C395.3 121.6 394.7 121.9 394.7 122.6C394.7 123.6 396.7 123.8 397.4 123.9C402.3 124.6 402.3 128.6 402.3 132.3V170.1C402.3 174 402.1 176.3 399.7 177.3C396.8 178.6 395.9 178.5 395.7 179.5C395.7 180.2 396.3 180.3 397.1 180.3C400.8 180.3 404.6 180.1 408.2 180C415.1 179.8 422.1 180.3 429 180.3C433 180.3 433.8 180.5 436.7 177.5C438.9 175.3 441.3 172.5 441.3 169.4C441.3 169.2 441.2 168.4 440.6 168.4C439.4 168.4 437.5 176.9 416.4 176.9C408.7 176.9 409.5 174.9 409.5 170V154.7C409.5 153.5 409.2 152 411.2 152H424.7C432.4 152 429.3 159.3 432.1 159.3C432.7 159.3 433.1 159 433.1 158.2C433.1 156 432.9 153.8 432.9 151.7C432.9 149 433.1 146.2 433.1 143.3C433.1 142.6 432.8 141.7 432.1 141.7C429.9 141.7 432.4 148.4 422.9 148.4H413C409.3 148.4 409.5 148.4 409.5 145.6L409.6 130.3ZM458.1 168.6C458.1 180.2 450.1 176.6 450.1 179.5C450.1 179.9 450.2 180.4 451.3 180.4C451.9 180.4 456.7 180.1 459.9 180.1C464.4 180.1 466.9 180.4 469.1 180.4C470 180.4 470.1 179.7 470.1 179.3C470.1 177.1 462.1 180 462.1 172.5V138.5C462.1 136.8 462.4 136.6 462.7 136.6C463.3 136.6 464.4 138 464.6 138.2L503.8 178.4C505.7 180.3 506.6 180.7 507.3 180.7C507.9 180.7 508.1 179.5 508.1 177.1V129C508.1 122.9 513.5 124.4 513.5 122.3C513.5 121.8 513.1 121.5 512.6 121.5C510.4 121.5 506.5 121.8 503.4 121.8C500.3 121.8 497.8 121.5 495 121.5C494.4 121.5 494 121.8 494 122.3C494 125 504.1 121.9 504.1 132.8V167.5C504.1 168.2 504 168.4 503.8 168.4C503.6 168.4 503.2 168.1 502.7 167.5L459.1 123.4C458.5 122.8 457.7 121.5 456.7 121.5C455.3 121.5 453.9 121.8 452.5 121.8C451.1 121.8 449.7 121.5 448.2 121.5C447.7 121.5 446.8 121.8 446.8 122.3C446.8 125.4 457.8 120.6 457.8 137.8L458.1 168.6ZM523.2 176.4C523.6 177.9 531.9 181 538.6 181C559.3 181 564.7 170.5 564.7 163.6C564.7 140.7 527.7 149.8 527.7 134.2C527.7 126.6 535.4 123.4 542.6 123.4C550.6 123.4 557.3 127 560 134.2C560.3 135 560.9 136.7 561.9 136.7C562.9 136.7 563 136.1 562.9 135.5L561.5 124.2C561.4 123.3 560.9 123 560.4 123C559.5 123 559.3 123.9 558.5 123.9C557.2 123.9 554.2 120.9 543.2 120.9C532.7 120.9 522.9 125.9 522.9 136.5C522.9 158.2 560 149.2 560 165.2C560 173.9 551.5 178.3 542.8 178.3C530.2 178.3 524.7 169.7 523.6 165.9C523.1 164.2 523.1 163.2 521.9 163.2C521 163.2 520.5 164.1 520.9 165.8L523.2 176.4ZM569.3 126.5C569.5 126.4 569.7 126.2 569.9 126C570 125.8 570.1 125.6 570.1 125.3C570.1 125 570 124.7 569.8 124.6C569.5 124.4 569.2 124.3 568.8 124.3H567.4V128.3H568.1V126.6H568.7L569.9 128.3H570.7L569.3 126.5ZM568.2 126.2H568V124.8H568.3C568.6 124.8 568.8 124.8 569 125C569.2 125.1 569.3 125.3 569.2 125.5C569.2 125.7 569.1 126 568.9 126.1C568.8 126.1 568.5 126.2 568.2 126.2Z" fill="#1B1B1B"/>
</svg>
