<svg width="20" height="14" viewBox="0 0 20 14" fill="none" xmlns="http://www.w3.org/2000/svg">
<g clip-path="url(#clip0_4_2)">
<path d="M1.20607 1H18.7939C18.9092 1 19 1.09689 19 1.2287V12.7713C19 12.9031 18.9092 13 18.7939 13H1.20607C1.09077 13 1 12.9031 1 12.7713V1.2287C1 1.09689 1.09077 1 1.20607 1ZM2.65673 11.5571C2.57414 11.6453 2.44249 11.6365 2.36807 11.5484C2.28548 11.4602 2.28548 11.3197 2.36807 11.2402L6.62917 6.80572L1.42018 1.72963V12.5513H18.5795V1.72963L13.3787 6.79701L17.6563 11.2402C17.7389 11.3197 17.7389 11.4602 17.6563 11.5484C17.5737 11.6365 17.4421 11.6453 17.3595 11.5571L13.0737 7.09645L10.1396 9.95618C10.0652 10.0356 9.9417 10.0356 9.85911 9.95618L6.93318 7.11477L2.65554 11.558L2.65673 11.5571ZM1.74987 1.44873L9.99994 9.49002L18.25 1.44873H1.74987Z" fill="white" stroke="white" stroke-width="0.514286"/>
</g>
<defs>
<clipPath id="clip0_4_2">
<rect width="20" height="14" fill="white"/>
</clipPath>
</defs>
</svg>
