<?xml version="1.0" encoding="UTF-8"?>
<svg width="20px" height="14px" viewBox="0 0 20 14" version="1.1" xmlns="http://www.w3.org/2000/svg" xmlns:xlink="http://www.w3.org/1999/xlink">
    <title>Shape</title>
    <defs>
        <filter id="filter-1">
            <feColorMatrix in="SourceGraphic" type="matrix" values="0 0 0 0 0.070588 0 0 0 0 0.070588 0 0 0 0 0.070588 0 0 0 1.000000 0"></feColorMatrix>
        </filter>
    </defs>
    <g id="Symbols" stroke="none" stroke-width="1" fill="none" fill-rule="evenodd">
        <g id="Mobile-Footer" transform="translate(-323.000000, -204.000000)">
            <g id="Group-13" transform="translate(24.000000, 104.000000)">
                <g id="np_mail_1839991_000000" transform="translate(20.000000, 62.000000)" filter="url(#filter-1)">
                    <g transform="translate(280.000000, 39.000000)">
                        <path d="M0.206069541,0 L17.7939305,0 C17.9092304,0 18,0.0968937853 18,0.228697848 L18,11.7713022 C18,11.9031129 17.9092325,12 17.7939305,12 L0.206069541,12 C0.0907695736,12 0,11.9031062 0,11.7713022 L0,0.228697848 C0,0.0968870813 0.0907674802,0 0.206069541,0 Z M1.65672894,10.5571074 C1.57413825,10.6452725 1.44249097,10.6365438 1.36807081,10.5483781 C1.28548012,10.460213 1.28548012,10.3196802 1.36807081,10.2402371 L5.62917475,5.8057246 L0.420181902,0.729633511 L0.420181902,11.5513279 L17.579525,11.5513279 L17.579525,0.729633511 L12.3786964,5.79700932 L16.6563382,10.2402371 C16.7389289,10.3196735 16.7389289,10.4602152 16.6563382,10.5483781 C16.5737475,10.6365432 16.4421002,10.6452718 16.3594949,10.5571074 L12.0736889,6.09644908 L9.13958753,8.95617779 C9.06517364,9.0356142 8.94169688,9.0356142 8.85911457,8.95617779 L5.93317746,6.11477351 L1.6555357,10.5580013 L1.65672894,10.5571074 Z M0.749870558,0.448725111 L8.9999372,8.49002212 L17.2500038,0.448725111 L0.749870558,0.448725111 Z" id="Shape" stroke="#121212" stroke-width="0.514285714" fill="#000000" fill-rule="nonzero"></path>
                    </g>
                </g>
            </g>
        </g>
    </g>
</svg>