<?xml version="1.0" encoding="UTF-8"?>
<svg width="16px" height="18px" viewBox="0 0 16 18" version="1.1" xmlns="http://www.w3.org/2000/svg" xmlns:xlink="http://www.w3.org/1999/xlink">
    <title>Shape</title>
    <g id="Page-1" stroke="none" stroke-width="1" fill="none" fill-rule="evenodd">
        <g id="Selected-Car-Page-(mobile)" transform="translate(-329.000000, -3217.000000)" fill="#000000" fill-rule="nonzero">
            <g id="Start-Your-Journey-CTA" transform="translate(0.000000, 2789.000000)">
                <g id="Booking-Widget" transform="translate(20.000000, 350.000000)">
                    <g id="Group-2" transform="translate(20.000000, 62.000000)">
                        <g id="np_person_736089_000000" transform="translate(289.000000, 16.000000)">
                            <path d="M7.77777778,0 C5.32986111,0 3.33333333,2.02148438 3.33333333,4.5 C3.33333333,6.97851562 5.32986111,9 7.77777778,9 C10.2256944,9 12.2222222,6.97851562 12.2222222,4.5 C12.2222222,2.02148438 10.2256944,0 7.77777778,0 Z M7.77777778,1.125 C9.62563889,1.125 11.1111111,2.62904063 11.1111111,4.5 C11.1111111,6.37095937 9.62563889,7.875 7.77777778,7.875 C5.92991667,7.875 4.44444444,6.37095937 4.44444444,4.5 C4.44444444,2.62904063 5.92991667,1.125 7.77777778,1.125 Z M7.77777778,10.6875 C3.49611111,10.6875 0,14.0371875 0,17.4375 C0,17.7484219 0.248480556,18 0.555555556,18 L15,18 C15.3070833,18 15.5555556,17.7484134 15.5555556,17.4375 C15.5555556,14.0371875 12.0594444,10.6875 7.77777778,10.6875 Z M7.77777778,11.8125 C11.2097222,11.8125 13.9833333,14.4349313 14.3663889,16.875 L1.18916667,16.875 C1.57219444,14.4349313 4.34555556,11.8125 7.77777778,11.8125 Z" id="Shape"></path>
                        </g>
                    </g>
                </g>
            </g>
        </g>
    </g>
</svg>